<mxfile host="app.diagrams.net" modified="2023-11-06T16:25:42.004Z" agent="Mozilla/5.0 (X11; Linux x86_64) AppleWebKit/537.36 (KHTML, like Gecko) Chrome/118.0.0.0 Safari/537.36" version="21.8.2" etag="-OHjb-SGg48ZN-4eNT_q" type="github">
  <diagram name="Page-1" id="NsNxhefLX8bXuKWP64sY">
    <mxGraphModel>
      <root>
        <mxCell id="0" />
        <mxCell id="1" parent="0" />
      </root>
    </mxGraphModel>
  </diagram>
</mxfile>
